<svg width="163" height="34" viewBox="0 0 163 34" fill="none" xmlns="http://www.w3.org/2000/svg">
<g clip-path="url(#clip0_2305_280)">
<path d="M56.405 25.5H59.688L60.4515 15.3765C60.5278 14.178 60.4769 12.546 60.4769 12.546H60.5278C60.5278 12.546 61.0874 14.331 61.5201 15.3765L64.4214 22.389H67.2972L70.2239 15.3765C70.6566 14.331 71.191 12.5715 71.191 12.5715H71.2419C71.2419 12.5715 71.191 14.178 71.2674 15.3765L72.0309 25.5H75.2884L73.8378 7.395H70.3257L66.7882 16.3455C66.381 17.4165 65.8974 18.9975 65.8974 18.9975H65.8465C65.8465 18.9975 65.3375 17.4165 64.9304 16.3455L61.3928 7.395H57.8811L56.405 25.5ZM77.8831 18.9975C77.8831 22.695 80.5553 25.806 84.8563 25.806C88.0885 25.806 90.0736 23.9445 90.0736 23.9445L88.8265 21.624C88.8265 21.624 87.1723 23.052 85.0854 23.052C83.1512 23.052 81.3952 21.879 81.1916 19.6095H90.1499C90.1499 19.6095 90.2263 18.7425 90.2263 18.36C90.2263 14.9175 88.2157 12.189 84.4746 12.189C80.6062 12.189 77.8831 14.994 77.8831 18.9975ZM81.2934 17.391C81.5988 15.708 82.744 14.688 84.3983 14.688C85.8234 14.688 86.9178 15.6315 86.9687 17.391H81.2934ZM93.4505 20.7315C93.4505 25.092 97.0389 25.6275 98.8459 25.6275C99.4567 25.6275 99.8384 25.551 99.8384 25.551V22.7205C99.8384 22.7205 99.6094 22.7715 99.2531 22.7715C98.3623 22.7715 96.6826 22.4655 96.6826 20.3235V15.2745H99.6348V12.699H96.6826V8.9505H93.5269V12.699H91.7708V15.2745H93.4505V20.7315ZM102.484 25.5H105.716V20.349C105.716 19.584 105.792 18.87 105.996 18.2325C106.607 16.2945 108.159 15.504 109.534 15.504C109.966 15.504 110.297 15.555 110.297 15.555V12.3675C110.297 12.3675 110.017 12.3165 109.712 12.3165C107.727 12.3165 106.174 13.7955 105.589 15.657H105.538C105.538 15.657 105.589 15.2235 105.589 14.739V12.495H102.484V25.5ZM111.508 18.9975C111.508 23.001 114.69 25.806 118.66 25.806C122.604 25.806 125.786 23.001 125.786 18.9975C125.786 15.0195 122.604 12.189 118.634 12.189C114.69 12.189 111.508 15.0195 111.508 18.9975ZM114.791 18.9975C114.791 16.6005 116.547 14.943 118.66 14.943C120.747 14.943 122.503 16.6005 122.503 18.9975C122.503 21.42 120.747 23.052 118.66 23.052C116.547 23.052 114.791 21.42 114.791 18.9975ZM128.382 25.5H131.614V19.533C131.614 18.921 131.665 18.3345 131.843 17.799C132.326 16.2435 133.599 15.147 135.329 15.147C136.984 15.147 137.391 16.218 137.391 17.799V25.5H140.598V17.136C140.598 13.6935 138.969 12.189 136.093 12.189C133.472 12.189 132.046 13.7955 131.486 14.892H131.436C131.436 14.892 131.486 14.484 131.486 13.9995V12.495H128.382V25.5ZM143.99 10.2765H147.196V7.395H143.99V10.2765ZM143.99 25.5H147.222V12.495H143.99V25.5ZM149.833 18.9975C149.833 22.7715 152.581 25.806 156.882 25.806C160.369 25.806 162.227 23.6895 162.227 23.6895L160.98 21.3945C160.98 21.3945 159.351 23.052 157.162 23.052C154.694 23.052 153.116 21.165 153.116 18.972C153.116 16.7535 154.668 14.943 157.06 14.943C159.096 14.943 160.445 16.3455 160.445 16.3455L161.87 14.127C161.87 14.127 160.267 12.189 156.882 12.189C152.581 12.189 149.833 15.3 149.833 18.9975Z" fill="white"/>
<path d="M37.0319 1.68595L46.2475 30.4363C46.7499 32.0039 45.5829 33.6075 43.9398 33.6075H37.1632C36.1072 33.6075 35.1727 32.9224 34.8531 31.9139L25.7423 3.16353C25.246 1.59752 26.4126 0 28.0524 0H34.7242C35.7773 0 36.7099 0.68133 37.0319 1.68595Z" fill="#EF305E"/>
<g filter="url(#filter0_d_2305_280)">
<path d="M28.206 22.95L21.7077 2.09415C21.3195 0.848355 20.1682 0 18.8656 0C17.2802 0 15.9729 1.24486 15.8922 2.83136L15.0994 18.4202C15.0713 18.9739 15.138 19.5283 15.2966 20.0595L18.8241 31.8749C19.1311 32.9031 20.0752 33.6075 21.1463 33.6075H24.4253C25.4803 33.6075 26.4141 32.9238 26.7346 31.9167L28.1928 27.3344C28.6463 25.909 28.6509 24.3782 28.206 22.95Z" fill="white"/>
<path d="M28.206 22.95L21.7077 2.09415C21.3195 0.848355 20.1682 0 18.8656 0C17.2802 0 15.9729 1.24486 15.8922 2.83136L15.0994 18.4202C15.0713 18.9739 15.138 19.5283 15.2966 20.0595L18.8241 31.8749C19.1311 32.9031 20.0752 33.6075 21.1463 33.6075H24.4253C25.4803 33.6075 26.4141 32.9238 26.7346 31.9167L28.1928 27.3344C28.6463 25.909 28.6509 24.3782 28.206 22.95Z" fill="url(#paint0_linear_2305_280)"/>
</g>
<path d="M12.311 0H18.9853C20.6197 0 21.7856 1.58761 21.2994 3.15104L12.2823 32.1467C11.9667 33.1615 11.0291 33.8528 9.96821 33.8528H3.29397C1.65962 33.8528 0.493716 32.2652 0.979914 30.7018L9.99699 1.7061C10.3126 0.691269 11.2502 0 12.311 0Z" fill="#EF305E"/>
</g>
<defs>
<filter id="filter0_d_2305_280" x="11.0932" y="0" width="17.4432" height="36.6075" filterUnits="userSpaceOnUse" color-interpolation-filters="sRGB">
<feFlood flood-opacity="0" result="BackgroundImageFix"/>
<feColorMatrix in="SourceAlpha" type="matrix" values="0 0 0 0 0 0 0 0 0 0 0 0 0 0 0 0 0 0 127 0" result="hardAlpha"/>
<feOffset dx="-4" dy="3"/>
<feComposite in2="hardAlpha" operator="out"/>
<feColorMatrix type="matrix" values="0 0 0 0 0.904167 0 0 0 0 0.892865 0 0 0 0 0.892865 0 0 0 0.4 0"/>
<feBlend mode="normal" in2="BackgroundImageFix" result="effect1_dropShadow_2305_280"/>
<feBlend mode="normal" in="SourceGraphic" in2="effect1_dropShadow_2305_280" result="shape"/>
</filter>
<linearGradient id="paint0_linear_2305_280" x1="17.5725" y1="14.875" x2="24.5426" y2="16.6897" gradientUnits="userSpaceOnUse">
<stop stop-opacity="0.25"/>
<stop offset="0.911458" stop-color="white" stop-opacity="0"/>
</linearGradient>
<clipPath id="clip0_2305_280">
<rect width="163" height="34" fill="white"/>
</clipPath>
</defs>
</svg>
