<svg width="47" height="34" viewBox="0 0 47 34" fill="none" xmlns="http://www.w3.org/2000/svg">
<path d="M37.0319 1.68595L46.2475 30.4363C46.7499 32.0039 45.5829 33.6075 43.9398 33.6075H37.1632C36.1072 33.6075 35.1727 32.9224 34.8531 31.9139L25.7423 3.16353C25.246 1.59752 26.4126 0 28.0524 0H34.7242C35.7773 0 36.7099 0.68133 37.0319 1.68595Z" fill="#EF305E"/>
<g filter="url(#filter0_d_2436_3)">
<path d="M28.206 22.95L21.7077 2.09415C21.3195 0.848355 20.1682 0 18.8656 0C17.2802 0 15.9729 1.24486 15.8922 2.83136L15.0994 18.4202C15.0713 18.9739 15.138 19.5283 15.2966 20.0595L18.8241 31.8749C19.1311 32.9031 20.0752 33.6075 21.1463 33.6075H24.4253C25.4803 33.6075 26.4141 32.9238 26.7346 31.9167L28.1928 27.3344C28.6463 25.909 28.6509 24.3782 28.206 22.95Z" fill="white"/>
<path d="M28.206 22.95L21.7077 2.09415C21.3195 0.848355 20.1682 0 18.8656 0C17.2802 0 15.9729 1.24486 15.8922 2.83136L15.0994 18.4202C15.0713 18.9739 15.138 19.5283 15.2966 20.0595L18.8241 31.8749C19.1311 32.9031 20.0752 33.6075 21.1463 33.6075H24.4253C25.4803 33.6075 26.4141 32.9238 26.7346 31.9167L28.1928 27.3344C28.6463 25.909 28.6509 24.3782 28.206 22.95Z" fill="url(#paint0_linear_2436_3)"/>
</g>
<path d="M12.311 0H18.9853C20.6197 0 21.7856 1.58761 21.2994 3.15104L12.2823 32.1467C11.9667 33.1615 11.0291 33.8528 9.96821 33.8528H3.29397C1.65962 33.8528 0.493716 32.2652 0.979914 30.7018L9.99699 1.7061C10.3126 0.691269 11.2502 0 12.311 0Z" fill="#EF305E"/>
<defs>
<filter id="filter0_d_2436_3" x="11.0932" y="0" width="17.4432" height="36.6075" filterUnits="userSpaceOnUse" color-interpolation-filters="sRGB">
<feFlood flood-opacity="0" result="BackgroundImageFix"/>
<feColorMatrix in="SourceAlpha" type="matrix" values="0 0 0 0 0 0 0 0 0 0 0 0 0 0 0 0 0 0 127 0" result="hardAlpha"/>
<feOffset dx="-4" dy="3"/>
<feComposite in2="hardAlpha" operator="out"/>
<feColorMatrix type="matrix" values="0 0 0 0 0.904167 0 0 0 0 0.892865 0 0 0 0 0.892865 0 0 0 0.4 0"/>
<feBlend mode="normal" in2="BackgroundImageFix" result="effect1_dropShadow_2436_3"/>
<feBlend mode="normal" in="SourceGraphic" in2="effect1_dropShadow_2436_3" result="shape"/>
</filter>
<linearGradient id="paint0_linear_2436_3" x1="17.5725" y1="14.875" x2="24.5426" y2="16.6897" gradientUnits="userSpaceOnUse">
<stop stop-opacity="0.25"/>
<stop offset="0.911458" stop-color="white" stop-opacity="0"/>
</linearGradient>
</defs>
</svg>
