<svg width="396" height="155" viewBox="0 0 396 155" fill="none" xmlns="http://www.w3.org/2000/svg">
<path d="M0 84.7076C0.102129 63.3952 4.80003 46.9323 14.0937 35.3189C23.4895 23.578 36.4088 17.7075 52.8514 17.7075H62.809V34.5532H51.0131C39.6769 34.5532 30.9449 39.2752 24.8172 48.719C18.7916 58.0352 15.6767 70.0314 15.4725 84.7076C15.6767 99.3838 18.7916 111.444 24.8172 120.887C30.9449 130.204 39.6769 134.862 51.0131 134.862H62.809V151.708H52.8514C36.4088 151.708 23.4895 145.901 14.0937 134.288C4.80003 122.547 0.102129 106.02 0 84.7076Z" fill="#8388DB"/>
<path d="M142.223 151.708H81.2519V49.6761C81.2519 40.2323 83.6519 32.639 88.452 26.8961C91.7201 23.0675 95.3967 20.5789 99.4818 19.4304C103.567 18.2818 108.571 17.7075 114.495 17.7075H142.223V34.5532H112.503C101.269 34.5532 95.652 40.4237 95.652 52.1647V73.9876H131.04V90.8333H95.652V134.862H142.223V151.708Z" fill="#8388DB"/>
<path d="M219.097 134.862V151.708H196.73C192.543 151.708 189.224 151.644 186.773 151.516C184.424 151.261 181.462 150.495 177.888 149.219C174.313 147.815 171.3 145.773 168.849 143.093C165.071 138.754 162.62 133.586 161.496 127.588C160.373 121.462 159.811 114.315 159.811 106.148V17.7075H174.211V105.765C174.211 113.167 174.875 118.973 176.203 123.185C178.858 130.969 184.424 134.862 192.901 134.862H219.097Z" fill="#8388DB"/>
<path d="M293 134.862V151.708H270.634C266.447 151.708 263.127 151.644 260.676 151.516C258.327 151.261 255.366 150.495 251.791 149.219C248.217 147.815 245.204 145.773 242.753 143.093C238.974 138.754 236.523 133.586 235.4 127.588C234.276 121.462 233.714 114.315 233.714 106.148V17.7075H248.115V105.765C248.115 113.167 248.778 118.973 250.106 123.185C252.761 130.969 258.327 134.862 266.804 134.862H293Z" fill="#8388DB"/>
<path d="M352.5 143.232V154.853H334.203C330.777 154.853 328.062 154.809 326.057 154.721C324.135 154.545 321.712 154.017 318.788 153.136C315.864 152.168 313.399 150.759 311.394 148.91C308.303 145.917 306.298 142.351 305.379 138.213C304.46 133.987 304 129.057 304 123.422V62.4094H315.78V123.158C315.78 128.265 316.323 132.271 317.41 135.176C319.582 140.547 324.135 143.232 331.07 143.232H352.5Z" fill="#8388DB"/>
<path d="M315.81 64.0521L304.012 64.0521L304.264 50.7869C304.311 48.3035 304.391 46.3358 304.506 44.8837C304.707 43.4938 305.263 41.7471 306.175 39.6434C307.174 37.5415 308.602 35.7808 310.459 34.3615C313.465 32.176 317.022 30.7887 321.131 30.1994C325.327 29.6117 330.984 30.0949 336.562 30.1997L371.752 30.1996L371.752 39.229L335.528 39.2293C330.473 39.1343 326.014 38.9101 323.123 39.6434C317.777 41.1184 315.906 44.0221 315.81 49.0495L315.81 64.0521Z" fill="#8388DB"/>
<path d="M352.5 143.27V154.853L369.849 154.552C372.771 154.552 375.087 154.509 376.797 154.421C378.436 154.245 380.503 153.719 382.997 152.841C385.492 151.876 387.594 150.472 389.304 148.629C391.941 145.645 393.652 142.091 394.436 137.967C395.22 133.754 395.612 128.84 395.612 123.224V62.4094H384.834V122.961C384.834 128.05 385.1 132.043 384.173 134.939C382.32 140.292 378.436 142.969 372.521 142.969L352.5 143.27Z" fill="#8388DB"/>
<path d="M384.951 69.2912L395.484 69.43L395.418 53.6865C395.453 51.0355 395.441 48.9335 395.382 47.3806C395.242 45.8914 394.788 44.01 394.019 41.7364C393.171 39.4617 391.92 37.5375 390.264 35.9636C387.583 33.5354 384.371 31.941 380.63 31.1803C376.809 30.4186 372.344 30.0041 367.237 29.9368L322.509 29.9336L322.389 39.0505L366.878 39.0506C371.506 39.1115 375.131 39.5797 377.754 40.455C382.6 42.2003 384.987 45.7563 384.916 51.123L384.951 69.2912Z" fill="#8388DB"/>
<path d="M352.577 38.6516L311.125 38.7251L311.075 10.0515C311.071 7.39748 312.699 5.26064 315.959 3.64095C318.179 2.56107 320.677 1.85728 323.454 1.52957C326.231 1.20187 329.633 1.03444 333.66 1.0273L352.511 0.993864L352.519 5.72798L332.314 5.76382C324.677 5.77736 320.861 7.43391 320.866 10.7334L320.877 16.8663L358.95 16.8664L358.958 21.6431L320.885 21.6004L320.907 33.9737L352.568 33.9175L352.577 38.6516Z" fill="#8388DB"/>
<path d="M345.535 38.6384L386.542 38.7164L386.546 24.3829L386.551 10.0493C386.555 7.39401 384.944 5.25591 381.719 3.63505C379.522 2.55439 377.051 1.84997 374.304 1.5218C371.556 1.19363 368.191 1.02575 364.207 1.01817L345.558 0.982677L345.55 5.71918L365.539 5.75722C373.095 5.7716 376.87 7.4294 376.864 10.7306L376.854 16.8665L353.054 16.8212L353.046 21.5577L376.885 21.582L376.865 33.9615L345.619 33.9019L345.535 38.6384Z" fill="#8388DB"/>
</svg>
