<svg width="144" height="56" viewBox="0 0 144 56" fill="none" xmlns="http://www.w3.org/2000/svg">
<path d="M128.87 50.7447V55.0282H122.505C121.314 55.0282 120.369 55.012 119.672 54.9795C119.004 54.9146 118.161 54.7199 117.144 54.3954C116.127 54.0384 115.269 53.5192 114.572 52.8378C113.497 51.7345 112.799 50.4202 112.48 48.8951C112.16 47.3374 112 45.5202 112 43.4434V20.9553H116.098V43.3461C116.098 45.2282 116.286 46.7047 116.664 47.7755C117.42 49.755 119.004 50.7447 121.416 50.7447H128.87Z" fill="#8388DB"/>
<path d="M116.006 21.6412L112.004 21.5615L112.092 16.6722C112.108 15.7569 112.136 15.0316 112.176 14.4964C112.246 13.9841 112.439 13.3403 112.756 12.565C113.104 11.7902 113.601 11.1413 114.247 10.6181C115.292 9.81263 116.529 9.30128 117.959 9.08407C119.418 8.86748 121.118 8.7785 123.058 8.81714L135.566 9.08408L135.566 12.1723L123.092 11.9668C121.334 11.9318 119.952 12.0495 118.947 12.3198C117.087 12.8634 116.141 14.0617 116.108 15.9147L116.006 21.6412Z" fill="#8388DB"/>
<path d="M128.87 50.7587V55.0282L134.904 54.9173C135.92 54.9173 136.726 54.9011 137.321 54.8688C137.891 54.8041 138.61 54.61 139.477 54.2866C140.345 53.9308 141.076 53.4132 141.671 52.734C142.588 51.6343 143.183 50.3243 143.456 48.8041C143.728 47.2516 143.865 45.4403 143.865 43.3702V20.9553H140.116L140.116 43.2732C140.116 45.1492 140.208 46.6209 139.886 47.6882C139.242 49.6613 137.891 50.6478 135.833 50.6478L128.87 50.7587Z" fill="#8388DB"/>
<path d="M140.157 23.492L143.821 23.5431L143.798 17.7404C143.81 16.7633 143.805 15.9886 143.785 15.4162C143.736 14.8673 143.578 14.1738 143.311 13.3358C143.016 12.4975 142.581 11.7882 142.005 11.2081C141.072 10.3131 139.955 9.72547 138.654 9.4451C137.325 9.16434 135.772 9.01156 133.995 8.98675L118.438 8.98557L118.396 12.3459L133.87 12.3459C135.48 12.3684 136.741 12.5409 137.653 12.8635C139.339 13.5068 140.169 14.8175 140.145 16.7955L140.157 23.492Z" fill="#8388DB"/>
<path d="M129.117 11.3162L116.948 11.3368L116.933 3.31605C116.932 2.57367 117.41 1.97594 118.367 1.52287C119.019 1.2208 119.752 1.02393 120.568 0.932265C121.383 0.840597 122.382 0.793764 123.564 0.791766L129.098 0.782413L129.101 2.10667L123.169 2.11669C120.926 2.12048 119.806 2.58386 119.808 3.50682L119.811 5.22233L130.988 5.22235L130.991 6.55854L119.813 6.54659L119.82 10.0077L129.115 9.99199L129.117 11.3162Z" fill="#8388DB"/>
<path d="M127.05 11.3124L139.089 11.3343L139.09 7.3248L139.092 3.31534C139.093 2.57259 138.62 1.97451 137.673 1.52111C137.028 1.21882 136.302 1.02178 135.496 0.929981C134.689 0.838183 133.701 0.791224 132.532 0.789103L127.057 0.779175L127.054 2.10409L132.923 2.11474C135.141 2.11876 136.249 2.58249 136.248 3.50591L136.245 5.22229L129.257 5.20962L129.255 6.53454L136.254 6.54133L136.248 10.0042L127.075 9.98752L127.05 11.3124Z" fill="#8388DB"/>
<path d="M0 29C0.0382231 21.0476 1.79648 14.9048 5.27478 10.5714C8.79129 6.19048 13.6265 4 19.7804 4H23.5072V10.2857H19.0924C14.8496 10.2857 11.5816 12.0476 9.28819 15.5714C7.03303 19.0476 5.86723 23.5238 5.79079 29C5.86723 34.4762 7.03303 38.9762 9.28819 42.5C11.5816 45.9762 14.8496 47.7143 19.0924 47.7143H23.5072V54H19.7804C13.6265 54 8.79129 51.8333 5.27478 47.5C1.79648 43.119 0.0382231 36.9524 0 29Z" fill="#8388DB"/>
<path d="M82 47.7143V54H73.6292C72.062 54 70.8198 53.9762 69.9024 53.9286C69.0233 53.8333 67.9148 53.5476 66.577 53.0714C65.2392 52.5476 64.1116 51.7857 63.1943 50.7857C61.78 49.1667 60.8627 47.2381 60.4422 45C60.0218 42.7143 59.8115 40.0476 59.8115 37V4H65.201V36.8571C65.201 39.619 65.4494 41.7857 65.9463 43.3571C66.9401 46.2619 69.0233 47.7143 72.1958 47.7143H82Z" fill="#8388DB"/>
<path d="M53 54H30V15.9286C30 12.4048 30.9054 9.57143 32.7161 7.42857C33.9489 6 35.3358 5.07143 36.8769 4.64286C38.4179 4.21429 40.3057 4 42.5402 4H53V10.2857H41.7889C37.5511 10.2857 35.4322 12.4762 35.4322 16.8571V25H48.7814V31.2857H35.4322V47.7143H53V54Z" fill="#8388DB"/>
<path d="M109 47.7143V54H100.7C99.1464 54 97.9147 53.9762 97.0052 53.9286C96.1335 53.8333 95.0344 53.5476 93.708 53.0714C92.3816 52.5476 91.2636 51.7857 90.354 50.7857C88.9518 49.1667 88.0422 47.2381 87.6253 45C87.2084 42.7143 87 40.0476 87 37V4H92.3437V36.8571C92.3437 39.619 92.59 41.7857 93.0827 43.3571C94.068 46.2619 96.1335 47.7143 99.2791 47.7143H109Z" fill="#8388DB"/>
</svg>
